<svg width="28" height="22" viewBox="0 0 28 22" fill="none" xmlns="http://www.w3.org/2000/svg">
<path d="M27.5 1.5558C27.428 2.50655 26.881 5.84125 26.3339 9.44557C25.499 14.5541 24.6064 20.1308 24.6064 20.1308C24.6064 20.1308 24.4625 21.6918 23.2964 21.9614C22.1303 22.231 20.1868 21.0106 19.8413 20.741C19.5678 20.5423 14.6588 17.4773 12.8737 15.9731C12.3842 15.5616 11.8372 14.7527 12.9456 13.802C15.4361 11.5599 18.4017 8.76444 20.1868 7.00485C21.0218 6.18181 21.8424 4.28033 18.3873 6.59334C13.4927 9.92805 8.65567 13.0499 8.65567 13.0499C8.65567 13.0499 7.54715 13.731 5.47413 13.1208C3.40111 12.5107 0.982589 11.6876 0.982589 11.6876C0.982589 11.6876 -0.672952 10.6659 2.14866 9.57328C2.14866 9.57328 14.0829 4.74861 18.229 3.04578C19.8125 2.36465 25.1967 0.193531 25.1967 0.193531C25.1967 0.193531 27.6871 -0.757204 27.4712 1.5558H27.5Z" fill="white"/>
</svg>
